solid CarChassis1_Mod2
facet normal -0.7054856854465761 -0.7087201934476434 -0.0023738217097700838
  outer loop
    vertex -100.26833860786977 -16.03141143800131 -10.844084335365274
    vertex -101.56361347935866 -14.73536440031608 -12.839527671335665
    vertex -100.26851454986337 -16.02453744180071 -12.844072514635531
  endloop
endfacet
facet normal -0.7054856854465761 -0.7087201934476434 -0.0023738217097700838
  outer loop
    vertex -101.56361347935866 -14.73536440031608 -12.839527671335665
    vertex -100.26833860786977 -16.03141143800131 -10.844084335365274
    vertex -101.56343753736532 -14.74223839651671 -10.839539492065391
  endloop
endfacet
facet normal -0.8671681046548548 0.49801233062577227 0.0017879636442862574
  outer loop
    vertex -101.58295400071576 -6.219651081106059 -10.810245485631645
    vertex -102.49318693829214 -7.797402116578094 -12.815599991221472
    vertex -102.49301099629903 -7.804276112778733 -10.815611811951197
  endloop
endfacet
facet normal -0.8671681046548548 0.49801233062577227 0.0017879636442862574
  outer loop
    vertex -102.49318693829214 -7.797402116578094 -12.815599991221472
    vertex -101.58295400071576 -6.219651081106059 -10.810245485631645
    vertex -101.58312994270933 -6.212777084905434 -12.810233664901881
  endloop
endfacet
facet normal -0.002289949773494369 0.9999914708892063 0.0034371905499860807
  outer loop
    vertex -96.94948637028318 -3.5233896797017814 -12.801397819519593
    vertex -95.12194853552306 -3.5260785701479547 -10.801556011760974
    vertex -95.12212447751602 -3.519204573947339 -12.801544191031223
  endloop
endfacet
facet normal -0.002289949773494369 0.9999914708892063 0.0034371905499860807
  outer loop
    vertex -95.12194853552306 -3.5260785701479547 -10.801556011760974
    vertex -96.94948637028318 -3.5233896797017814 -12.801397819519593
    vertex -96.94931042828959 -3.530263675902397 -10.80140964024934
  endloop
endfacet
facet normal -0.5019818417732991 0.8648728980517514 0.003016744180622152
  outer loop
    vertex -100.29377295809643 -4.9245594063035485 -10.80590764290865
    vertex -98.71349936801624 -4.000385449568177 -12.802882079865386
    vertex -100.29394890008993 -4.917685410102926 -12.805895822178913
  endloop
endfacet
facet normal -0.5019818417732991 0.8648728980517514 0.003016744180622152
  outer loop
    vertex -98.71349936801624 -4.000385449568177 -12.802882079865386
    vertex -100.29377295809643 -4.9245594063035485 -10.80590764290865
    vertex -98.71332342602302 -4.007259445768797 -10.802893900595146
  endloop
endfacet
facet normal -0.4980155324188233 -0.8671631366638873 -0.0029366444872486706
  outer loop
    vertex -98.68370449785608 -16.941462582734324 -10.847351600573688
    vertex -100.26851454986337 -16.02453744180071 -12.844072514635531
    vertex -98.68388043984928 -16.93458858653369 -12.847339779843946
  endloop
endfacet
facet normal -0.4980155324188233 -0.8671631366638873 -0.0029366444872486706
  outer loop
    vertex -100.26851454986337 -16.02453744180071 -12.844072514635531
    vertex -98.68370449785608 -16.941462582734324 -10.847351600573688
    vertex -100.26833860786977 -16.03141143800131 -10.844084335365274
  endloop
endfacet
facet normal 0.2566064438663101 0.9665103451713267 0.003299339795958061
  outer loop
    vertex -95.12212447751602 -3.519204573947339 -12.801544191031223
    vertex -93.35576944085602 -3.994989336546428 -10.803323040153384
    vertex -93.35594538284963 -3.9881153403457983 -12.803311219423614
  endloop
endfacet
facet normal 0.2566064438663101 0.9665103451713267 0.003299339795958061
  outer loop
    vertex -93.35576944085602 -3.994989336546428 -10.803323040153384
    vertex -95.12212447751602 -3.519204573947339 -12.801544191031223
    vertex -95.12194853552306 -3.5260785701479547 -10.801556011760974
  endloop
endfacet
facet normal -0.7087241634734035 0.7054813069412942 0.0024870997824784384
  outer loop
    vertex -100.29377295809643 -4.9245594063035485 -10.80590764290865
    vertex -101.58312994270933 -6.212777084905434 -12.810233664901881
    vertex -101.58295400071576 -6.219651081106059 -10.810245485631645
  endloop
endfacet
facet normal -0.7087241634734035 0.7054813069412942 0.0024870997824784384
  outer loop
    vertex -101.58312994270933 -6.212777084905434 -12.810233664901881
    vertex -100.29377295809643 -4.9245594063035485 -10.80590764290865
    vertex -100.29394890008993 -4.917685410102926 -12.805895822178913
  endloop
endfacet
facet normal -0.999997374192122 -0.002290238612128043 8.009969337266119e-05
  outer loop
    vertex -102.96192506453694 -9.57044492412974 -10.82164091559688
    vertex -102.9579164285896 -11.390922033196865 -12.827910102389062
    vertex -102.95774048659602 -11.397796029397492 -10.827921923118804
  endloop
endfacet
facet normal -0.999997374192122 -0.002290238612128043 8.009969337266119e-05
  outer loop
    vertex -102.9579164285896 -11.390922033196865 -12.827910102389062
    vertex -102.96192506453694 -9.57044492412974 -10.82164091559688
    vertex -102.96210100653015 -9.563570927929106 -12.821629094867118
  endloop
endfacet
facet normal -0.2610302871205539 0.9653248304300284 0.003340802448259114
  outer loop
    vertex -98.71332342602302 -4.007259445768797 -10.802893900595146
    vertex -96.94948637028318 -3.5233896797017814 -12.801397819519593
    vertex -98.71349936801624 -4.000385449568177 -12.802882079865386
  endloop
endfacet
facet normal -0.2610302871205539 0.9653248304300284 0.003340802448259114
  outer loop
    vertex -96.94948637028318 -3.5233896797017814 -12.801397819519593
    vertex -98.71332342602302 -4.007259445768797 -10.802893900595146
    vertex -96.94931042828959 -3.530263675902397 -10.80140964024934
  endloop
endfacet
facet normal -0.864878154881364 -0.5019791402634388 -0.001649226905696226
  outer loop
    vertex -102.48074243454907 -13.161798470598455 -10.834026794234223
    vertex -101.56361347935866 -14.73536440031608 -12.839527671335665
    vertex -101.56343753736532 -14.74223839651671 -10.839539492065391
  endloop
endfacet
facet normal -0.864878154881364 -0.5019791402634388 -0.001649226905696226
  outer loop
    vertex -101.56361347935866 -14.73536440031608 -12.839527671335665
    vertex -102.48074243454907 -13.161798470598455 -10.834026794234223
    vertex -102.4809183765428 -13.154924474397864 -12.834014973504479
  endloop
endfacet
facet normal -0.9665159725671342 0.2566046369823788 0.0009669807384850412
  outer loop
    vertex -102.49301099629903 -7.804276112778733 -10.815611811951197
    vertex -102.96210100653015 -9.563570927929106 -12.821629094867118
    vertex -102.96192506453694 -9.57044492412974 -10.82164091559688
  endloop
endfacet
facet normal -0.9665159725671342 0.2566046369823788 0.0009669807384850412
  outer loop
    vertex -102.96210100653015 -9.563570927929106 -12.821629094867118
    vertex -102.49301099629903 -7.804276112778733 -10.815611811951197
    vertex -102.49318693829214 -7.797402116578094 -12.815599991221472
  endloop
endfacet
facet normal -0.9653306073397144 -0.2610290382300383 -0.0008122400134717836
  outer loop
    vertex -102.95774048659602 -11.397796029397492 -10.827921923118804
    vertex -102.4809183765428 -13.154924474397864 -12.834014973504479
    vertex -102.48074243454907 -13.161798470598455 -10.834026794234223
  endloop
endfacet
facet normal -0.9653306073397144 -0.2610290382300383 -0.0008122400134717836
  outer loop
    vertex -102.4809183765428 -13.154924474397864 -12.834014973504479
    vertex -102.95774048659602 -11.397796029397492 -10.827921923118804
    vertex -102.9579164285896 -11.390922033196865 -12.827910102389062
  endloop
endfacet
facet normal 0.49801553241882707 0.8671631366638851 0.002936644487249904
  outer loop
    vertex -93.35594538284963 -3.9881153403457983 -12.803311219423614
    vertex -91.7711353308422 -4.9050404812794275 -10.80659030536181
    vertex -91.7713112728356 -4.89816648507882 -12.806578484632068
  endloop
endfacet
facet normal 0.49801553241882707 0.8671631366638851 0.002936644487249904
  outer loop
    vertex -91.7711353308422 -4.9050404812794275 -10.80659030536181
    vertex -93.35594538284963 -3.9881153403457983 -12.803311219423614
    vertex -93.35576944085602 -3.994989336546428 -10.803323040153384
  endloop
endfacet
facet normal 0.7054856854465728 0.7087201934476467 0.0023738217097707174
  outer loop
    vertex -91.7713112728356 -4.89816648507882 -12.806578484632068
    vertex -90.47603640134679 -6.194213522764043 -10.8111351486617
    vertex -90.4762123433403 -6.187339526563438 -12.811123327931952
  endloop
endfacet
facet normal 0.7054856854465728 0.7087201934476467 0.0023738217097707174
  outer loop
    vertex -90.47603640134679 -6.194213522764043 -10.8111351486617
    vertex -91.7713112728356 -4.89816648507882 -12.806578484632068
    vertex -91.7711353308422 -4.9050404812794275 -10.80659030536181
  endloop
endfacet
facet normal 0.9653306073397173 0.2610290382300274 0.0008122400134751516
  outer loop
    vertex -89.08190939410926 -9.531781893682634 -12.822740896878521
    vertex -89.55873150416294 -7.774653448682275 -10.816647846492854
    vertex -89.08173345211556 -9.538655889883243 -10.822752717608276
  endloop
endfacet
facet normal 0.9653306073397173 0.2610290382300274 0.0008122400134751516
  outer loop
    vertex -89.55873150416294 -7.774653448682275 -10.816647846492854
    vertex -89.08190939410926 -9.531781893682634 -12.822740896878521
    vertex -89.55890744615643 -7.767779452481664 -12.816636025763122
  endloop
endfacet
facet normal 0.8648781548813632 0.5019791402634401 0.001649226905699804
  outer loop
    vertex -89.55890744615643 -7.767779452481664 -12.816636025763122
    vertex -90.47603640134679 -6.194213522764043 -10.8111351486617
    vertex -89.55873150416294 -7.774653448682275 -10.816647846492854
  endloop
endfacet
facet normal 0.8648781548813632 0.5019791402634401 0.001649226905699804
  outer loop
    vertex -90.47603640134679 -6.194213522764043 -10.8111351486617
    vertex -89.55890744615643 -7.767779452481664 -12.816636025763122
    vertex -90.4762123433403 -6.187339526563438 -12.811123327931952
  endloop
endfacet
facet normal 0.9665159725671312 -0.25660463698239006 -0.0009669807384818042
  outer loop
    vertex -89.54663888440676 -13.125301810301394 -12.835051008046126
    vertex -89.33636956493027 -12.34085731999115 -10.832361534799203
    vertex -89.5464629424132 -13.132175806502024 -10.835062828775888
  endloop
endfacet
facet normal 0.9665159725671312 -0.25660463698239006 -0.0009669807384818042
  outer loop
    vertex -89.33636956493027 -12.34085731999115 -10.832361534799203
    vertex -89.54663888440676 -13.125301810301394 -12.835051008046126
    vertex -89.33654550692374 -12.333983323790546 -12.832349714069428
  endloop
endfacet
facet normal 0.8671681046548592 -0.49801233062576467 -0.0017879636442806543
  outer loop
    vertex -89.68162415483063 -13.36034317524793 -12.8358469746866
    vertex -89.5464629424132 -13.132175806502024 -10.835062828775888
    vertex -89.68144821283715 -13.367217171448523 -10.835858795416376
  endloop
endfacet
facet normal 0.8671681046548592 -0.49801233062576467 -0.0017879636442806543
  outer loop
    vertex -89.5464629424132 -13.132175806502024 -10.835062828775888
    vertex -89.68162415483063 -13.36034317524793 -12.8358469746866
    vertex -89.54663888440676 -13.125301810301394 -12.835051008046126
  endloop
endfacet
facet normal 0.8671681046548582 -0.4980123306257668 -0.0017879636442806651
  outer loop
    vertex -90.45669587998961 -14.709926841974083 -12.84041733436566
    vertex -89.68144821283715 -13.367217171448523 -10.835858795416376
    vertex -90.45651993799626 -14.716800838174688 -10.840429155095425
  endloop
endfacet
facet normal 0.8671681046548582 -0.4980123306257668 -0.0017879636442806651
  outer loop
    vertex -89.68144821283715 -13.367217171448523 -10.835858795416376
    vertex -90.45669587998961 -14.709926841974083 -12.84041733436566
    vertex -89.68162415483063 -13.36034317524793 -12.8358469746866
  endloop
endfacet
facet normal 0.7087241634734033 -0.7054813069412944 -0.0024870997824714297
  outer loop
    vertex -91.74587692260913 -16.005018516776612 -12.844755177088688
    vertex -90.45651993799626 -14.716800838174688 -10.840429155095425
    vertex -91.74570098061554 -16.011892512977173 -10.84476699781842
  endloop
endfacet
facet normal 0.7087241634734033 -0.7054813069412944 -0.0024870997824714297
  outer loop
    vertex -90.45651993799626 -14.716800838174688 -10.840429155095425
    vertex -91.74587692260913 -16.005018516776612 -12.844755177088688
    vertex -90.45669587998961 -14.709926841974083 -12.84041733436566
  endloop
endfacet
facet normal 0.5019818417732965 -0.8648728980517532 -0.0030167441806135185
  outer loop
    vertex -91.74587692260913 -16.005018516776612 -12.844755177088688
    vertex -93.326150512689 -16.929192473511943 -10.847780740131943
    vertex -93.32632645468266 -16.92231847731133 -12.847768919402192
  endloop
endfacet
facet normal 0.5019818417732965 -0.8648728980517532 -0.0030167441806135185
  outer loop
    vertex -93.326150512689 -16.929192473511943 -10.847780740131943
    vertex -91.74587692260913 -16.005018516776612 -12.844755177088688
    vertex -91.74570098061554 -16.011892512977173 -10.84476699781842
  endloop
endfacet
facet normal 0.26103028712055626 -0.9653248304300277 -0.0033408024482522647
  outer loop
    vertex -93.32632645468266 -16.92231847731133 -12.847768919402192
    vertex -95.09016351042256 -17.406188243378352 -10.849265000477736
    vertex -95.09033945241578 -17.399314247177767 -12.849253179747981
  endloop
endfacet
facet normal 0.26103028712055626 -0.9653248304300277 -0.0033408024482522647
  outer loop
    vertex -95.09016351042256 -17.406188243378352 -10.849265000477736
    vertex -93.32632645468266 -16.92231847731133 -12.847768919402192
    vertex -93.326150512689 -16.929192473511943 -10.847780740131943
  endloop
endfacet
facet normal -0.2566064438663112 -0.9665103451713264 -0.0032993397959557927
  outer loop
    vertex -96.91752540318939 -17.41037334913279 -10.849118628966108
    vertex -98.68388043984928 -16.93458858653369 -12.847339779843946
    vertex -96.91770134518276 -17.403499352932165 -12.849106808236343
  endloop
endfacet
facet normal -0.2566064438663112 -0.9665103451713264 -0.0032993397959557927
  outer loop
    vertex -98.68388043984928 -16.93458858653369 -12.847339779843946
    vertex -96.91752540318939 -17.41037334913279 -10.849118628966108
    vertex -98.68370449785608 -16.941462582734324 -10.847351600573688
  endloop
endfacet
facet normal 0.00228994977349248 -0.9999914708892061 -0.003437190549981527
  outer loop
    vertex -95.09016351042256 -17.406188243378352 -10.849265000477736
    vertex -96.91770134518276 -17.403499352932165 -12.849106808236343
    vertex -95.09033945241578 -17.399314247177767 -12.849253179747981
  endloop
endfacet
facet normal 0.00228994977349248 -0.9999914708892061 -0.003437190549981527
  outer loop
    vertex -96.91770134518276 -17.403499352932165 -12.849106808236343
    vertex -95.09016351042256 -17.406188243378352 -10.849265000477736
    vertex -96.91752540318939 -17.41037334913279 -10.849118628966108
  endloop
endfacet
facet normal 8.797099670242675e-05 -0.0034369981003034844 0.9999940896351149
  outer loop
    vertex -95.09016351042256 -17.406188243378352 -10.849265000477736
    vertex -96.14799245990352 -11.459961300996431 -10.828734650163913
    vertex -96.91752540318939 -17.41037334913279 -10.849118628966108
  endloop
endfacet
facet normal 8.797099670242675e-05 -0.0034369981003034844 0.9999940896351149
  outer loop
    vertex -96.14799245990352 -11.459961300996431 -10.828734650163913
    vertex -95.09016351042256 -17.406188243378352 -10.849265000477736
    vertex -89.33636956493027 -12.34085731999115 -10.832361534799203
  endloop
endfacet
facet normal 8.797099670242675e-05 -0.0034369981003034844 0.9999940896351149
  outer loop
    vertex -89.33636956493027 -12.34085731999115 -10.832361534799203
    vertex -95.09016351042256 -17.406188243378352 -10.849265000477736
    vertex -93.326150512689 -16.929192473511943 -10.847780740131943
  endloop
endfacet
facet normal 8.797099670242675e-05 -0.0034369981003034844 0.9999940896351149
  outer loop
    vertex -89.33636956493027 -12.34085731999115 -10.832361534799203
    vertex -93.326150512689 -16.929192473511943 -10.847780740131943
    vertex -91.74570098061554 -16.011892512977173 -10.84476699781842
  endloop
endfacet
facet normal 8.797099670242675e-05 -0.0034369981003034844 0.9999940896351149
  outer loop
    vertex -89.33636956493027 -12.34085731999115 -10.832361534799203
    vertex -91.74570098061554 -16.011892512977173 -10.84476699781842
    vertex -90.45651993799626 -14.716800838174688 -10.840429155095425
  endloop
endfacet
facet normal 8.797099670242675e-05 -0.0034369981003034844 0.9999940896351149
  outer loop
    vertex -89.33636956493027 -12.34085731999115 -10.832361534799203
    vertex -90.45651993799626 -14.716800838174688 -10.840429155095425
    vertex -89.68144821283715 -13.367217171448523 -10.835858795416376
  endloop
endfacet
facet normal 8.797099670242675e-05 -0.0034369981003034844 0.9999940896351149
  outer loop
    vertex -89.33636956493027 -12.34085731999115 -10.832361534799203
    vertex -89.68144821283715 -13.367217171448523 -10.835858795416376
    vertex -89.5464629424132 -13.132175806502024 -10.835062828775888
  endloop
endfacet
facet normal 8.797099670242675e-05 -0.0034369981003034844 0.9999940896351149
  outer loop
    vertex -102.95774048659602 -11.397796029397492 -10.827921923118804
    vertex -102.49301099629903 -7.804276112778733 -10.815611811951197
    vertex -102.96192506453694 -9.57044492412974 -10.82164091559688
  endloop
endfacet
facet normal 8.797099670242675e-05 -0.0034369981003034844 0.9999940896351149
  outer loop
    vertex -102.49301099629903 -7.804276112778733 -10.815611811951197
    vertex -102.95774048659602 -11.397796029397492 -10.827921923118804
    vertex -102.48074243454907 -13.161798470598455 -10.834026794234223
  endloop
endfacet
facet normal 8.797099670242675e-05 -0.0034369981003034844 0.9999940896351149
  outer loop
    vertex -102.49301099629903 -7.804276112778733 -10.815611811951197
    vertex -102.48074243454907 -13.161798470598455 -10.834026794234223
    vertex -101.58295400071576 -6.219651081106059 -10.810245485631645
  endloop
endfacet
facet normal 8.797099670242675e-05 -0.0034369981003034844 0.9999940896351149
  outer loop
    vertex -101.58295400071576 -6.219651081106059 -10.810245485631645
    vertex -102.48074243454907 -13.161798470598455 -10.834026794234223
    vertex -101.56343753736532 -14.74223839651671 -10.839539492065391
  endloop
endfacet
facet normal 8.797099670242675e-05 -0.0034369981003034844 0.9999940896351149
  outer loop
    vertex -101.58295400071576 -6.219651081106059 -10.810245485631645
    vertex -101.56343753736532 -14.74223839651671 -10.839539492065391
    vertex -100.29377295809643 -4.9245594063035485 -10.80590764290865
  endloop
endfacet
facet normal 8.797099670242675e-05 -0.0034369981003034844 0.9999940896351149
  outer loop
    vertex -100.29377295809643 -4.9245594063035485 -10.80590764290865
    vertex -101.56343753736532 -14.74223839651671 -10.839539492065391
    vertex -100.26833860786977 -16.03141143800131 -10.844084335365274
  endloop
endfacet
facet normal 8.797099670242675e-05 -0.0034369981003034844 0.9999940896351149
  outer loop
    vertex -100.29377295809643 -4.9245594063035485 -10.80590764290865
    vertex -100.26833860786977 -16.03141143800131 -10.844084335365274
    vertex -98.71332342602302 -4.007259445768797 -10.802893900595146
  endloop
endfacet
facet normal 8.797099670242675e-05 -0.0034369981003034844 0.9999940896351149
  outer loop
    vertex -98.71332342602302 -4.007259445768797 -10.802893900595146
    vertex -100.26833860786977 -16.03141143800131 -10.844084335365274
    vertex -98.68370449785608 -16.941462582734324 -10.847351600573688
  endloop
endfacet
facet normal 8.797099670242675e-05 -0.0034369981003034844 0.9999940896351149
  outer loop
    vertex -98.71332342602302 -4.007259445768797 -10.802893900595146
    vertex -98.68370449785608 -16.941462582734324 -10.847351600573688
    vertex -96.94931042828959 -3.530263675902397 -10.80140964024934
  endloop
endfacet
facet normal 8.797099670242675e-05 -0.0034369981003034844 0.9999940896351149
  outer loop
    vertex -96.94931042828959 -3.530263675902397 -10.80140964024934
    vertex -98.68370449785608 -16.941462582734324 -10.847351600573688
    vertex -96.91752540318939 -17.41037334913279 -10.849118628966108
  endloop
endfacet
facet normal 8.797099670242675e-05 -0.0034369981003034844 0.9999940896351149
  outer loop
    vertex -96.94931042828959 -3.530263675902397 -10.80140964024934
    vertex -96.91752540318939 -17.41037334913279 -10.849118628966108
    vertex -95.12194853552306 -3.5260785701479547 -10.801556011760974
  endloop
endfacet
facet normal 8.797099670242675e-05 -0.0034369981003034844 0.9999940896351149
  outer loop
    vertex -95.12194853552306 -3.5260785701479547 -10.801556011760974
    vertex -96.91752540318939 -17.41037334913279 -10.849118628966108
    vertex -95.8914814788085 -9.476490618284297 -10.821939990563164
  endloop
endfacet
facet normal 8.797099670242675e-05 -0.0034369981003034844 0.9999940896351149
  outer loop
    vertex -95.8914814788085 -9.476490618284297 -10.821939990563164
    vertex -96.91752540318939 -17.41037334913279 -10.849118628966108
    vertex -96.14799245990352 -11.459961300996431 -10.828734650163913
  endloop
endfacet
facet normal 8.797099670242675e-05 -0.0034369981003034844 0.9999940896351149
  outer loop
    vertex -95.12194853552306 -3.5260785701479547 -10.801556011760974
    vertex -95.8914814788085 -9.476490618284297 -10.821939990563164
    vertex -89.07964116314531 -10.45233144251713 -10.82589322136925
  endloop
endfacet
facet normal 8.797099670242675e-05 -0.0034369981003034844 0.9999940896351149
  outer loop
    vertex -95.12194853552306 -3.5260785701479547 -10.801556011760974
    vertex -89.07964116314531 -10.45233144251713 -10.82589322136925
    vertex -93.35576944085602 -3.994989336546428 -10.803323040153384
  endloop
endfacet
facet normal 8.797099670242675e-05 -0.0034369981003034844 0.9999940896351149
  outer loop
    vertex -93.35576944085602 -3.994989336546428 -10.803323040153384
    vertex -89.07964116314531 -10.45233144251713 -10.82589322136925
    vertex -91.7711353308422 -4.9050404812794275 -10.80659030536181
  endloop
endfacet
facet normal 8.797099670242675e-05 -0.0034369981003034844 0.9999940896351149
  outer loop
    vertex -91.7711353308422 -4.9050404812794275 -10.80659030536181
    vertex -89.07964116314531 -10.45233144251713 -10.82589322136925
    vertex -90.47603640134679 -6.194213522764043 -10.8111351486617
  endloop
endfacet
facet normal 8.797099670242675e-05 -0.0034369981003034844 0.9999940896351149
  outer loop
    vertex -90.47603640134679 -6.194213522764043 -10.8111351486617
    vertex -89.07964116314531 -10.45233144251713 -10.82589322136925
    vertex -89.55873150416294 -7.774653448682275 -10.816647846492854
  endloop
endfacet
facet normal 8.797099670242675e-05 -0.0034369981003034844 0.9999940896351149
  outer loop
    vertex -89.55873150416294 -7.774653448682275 -10.816647846492854
    vertex -89.07964116314531 -10.45233144251713 -10.82589322136925
    vertex -89.08173345211556 -9.538655889883243 -10.822752717608276
  endloop
endfacet
facet normal -8.797099670152218e-05 0.003436998100302631 -0.9999940896351149
  outer loop
    vertex -102.49318693829214 -7.797402116578094 -12.815599991221472
    vertex -102.9579164285896 -11.390922033196865 -12.827910102389062
    vertex -102.96210100653015 -9.563570927929106 -12.821629094867118
  endloop
endfacet
facet normal -8.797099670152218e-05 0.003436998100302631 -0.9999940896351149
  outer loop
    vertex -102.9579164285896 -11.390922033196865 -12.827910102389062
    vertex -102.49318693829214 -7.797402116578094 -12.815599991221472
    vertex -102.4809183765428 -13.154924474397864 -12.834014973504479
  endloop
endfacet
facet normal -8.797099670152218e-05 0.003436998100302631 -0.9999940896351149
  outer loop
    vertex -102.4809183765428 -13.154924474397864 -12.834014973504479
    vertex -102.49318693829214 -7.797402116578094 -12.815599991221472
    vertex -101.58312994270933 -6.212777084905434 -12.810233664901881
  endloop
endfacet
facet normal -8.797099670152218e-05 0.003436998100302631 -0.9999940896351149
  outer loop
    vertex -102.4809183765428 -13.154924474397864 -12.834014973504479
    vertex -101.58312994270933 -6.212777084905434 -12.810233664901881
    vertex -101.56361347935866 -14.73536440031608 -12.839527671335665
  endloop
endfacet
facet normal -8.797099670152218e-05 0.003436998100302631 -0.9999940896351149
  outer loop
    vertex -101.56361347935866 -14.73536440031608 -12.839527671335665
    vertex -101.58312994270933 -6.212777084905434 -12.810233664901881
    vertex -100.29394890008993 -4.917685410102926 -12.805895822178913
  endloop
endfacet
facet normal -8.797099670152218e-05 0.003436998100302631 -0.9999940896351149
  outer loop
    vertex -101.56361347935866 -14.73536440031608 -12.839527671335665
    vertex -100.29394890008993 -4.917685410102926 -12.805895822178913
    vertex -100.26851454986337 -16.02453744180071 -12.844072514635531
  endloop
endfacet
facet normal -8.797099670152218e-05 0.003436998100302631 -0.9999940896351149
  outer loop
    vertex -100.26851454986337 -16.02453744180071 -12.844072514635531
    vertex -100.29394890008993 -4.917685410102926 -12.805895822178913
    vertex -98.71349936801624 -4.000385449568177 -12.802882079865386
  endloop
endfacet
facet normal -8.797099670152218e-05 0.003436998100302631 -0.9999940896351149
  outer loop
    vertex -100.26851454986337 -16.02453744180071 -12.844072514635531
    vertex -98.71349936801624 -4.000385449568177 -12.802882079865386
    vertex -98.68388043984928 -16.93458858653369 -12.847339779843946
  endloop
endfacet
facet normal -8.797099670152218e-05 0.003436998100302631 -0.9999940896351149
  outer loop
    vertex -98.68388043984928 -16.93458858653369 -12.847339779843946
    vertex -98.71349936801624 -4.000385449568177 -12.802882079865386
    vertex -96.94948637028318 -3.5233896797017814 -12.801397819519593
  endloop
endfacet
facet normal -8.797099670152218e-05 0.003436998100302631 -0.9999940896351149
  outer loop
    vertex -98.68388043984928 -16.93458858653369 -12.847339779843946
    vertex -96.94948637028318 -3.5233896797017814 -12.801397819519593
    vertex -96.91770134518276 -17.403499352932165 -12.849106808236343
  endloop
endfacet
facet normal -8.797099670152218e-05 0.003436998100302631 -0.9999940896351149
  outer loop
    vertex -96.91770134518276 -17.403499352932165 -12.849106808236343
    vertex -96.94948637028318 -3.5233896797017814 -12.801397819519593
    vertex -95.89165730264958 -9.399668259642931 -12.82168775603406
  endloop
endfacet
facet normal -8.797099670152218e-05 0.003436998100302631 -0.9999940896351149
  outer loop
    vertex -95.89165730264958 -9.399668259642931 -12.82168775603406
    vertex -96.94948637028318 -3.5233896797017814 -12.801397819519593
    vertex -95.12212447751602 -3.519204573947339 -12.801544191031223
  endloop
endfacet
facet normal -8.797099670152218e-05 0.003436998100302631 -0.9999940896351149
  outer loop
    vertex -96.91770134518276 -17.403499352932165 -12.849106808236343
    vertex -95.89165730264958 -9.399668259642931 -12.82168775603406
    vertex -96.14816840189717 -11.453087304795822 -12.828722829434126
  endloop
endfacet
facet normal -8.797099670152218e-05 0.003436998100302631 -0.9999940896351149
  outer loop
    vertex -95.89165730264958 -9.399668259642931 -12.82168775603406
    vertex -95.12212447751602 -3.519204573947339 -12.801544191031223
    vertex -89.07981710513907 -10.445457446316516 -12.825881400639487
  endloop
endfacet
facet normal -8.797099670152218e-05 0.003436998100302631 -0.9999940896351149
  outer loop
    vertex -89.07981710513907 -10.445457446316516 -12.825881400639487
    vertex -95.12212447751602 -3.519204573947339 -12.801544191031223
    vertex -93.35594538284963 -3.9881153403457983 -12.803311219423614
  endloop
endfacet
facet normal -8.797099670152218e-05 0.003436998100302631 -0.9999940896351149
  outer loop
    vertex -89.07981710513907 -10.445457446316516 -12.825881400639487
    vertex -93.35594538284963 -3.9881153403457983 -12.803311219423614
    vertex -91.7713112728356 -4.89816648507882 -12.806578484632068
  endloop
endfacet
facet normal -8.797099670152218e-05 0.003436998100302631 -0.9999940896351149
  outer loop
    vertex -89.07981710513907 -10.445457446316516 -12.825881400639487
    vertex -91.7713112728356 -4.89816648507882 -12.806578484632068
    vertex -90.4762123433403 -6.187339526563438 -12.811123327931952
  endloop
endfacet
facet normal -8.797099670152218e-05 0.003436998100302631 -0.9999940896351149
  outer loop
    vertex -89.07981710513907 -10.445457446316516 -12.825881400639487
    vertex -90.4762123433403 -6.187339526563438 -12.811123327931952
    vertex -89.55890744615643 -7.767779452481664 -12.816636025763122
  endloop
endfacet
facet normal -8.797099670152218e-05 0.003436998100302631 -0.9999940896351149
  outer loop
    vertex -89.07981710513907 -10.445457446316516 -12.825881400639487
    vertex -89.55890744615643 -7.767779452481664 -12.816636025763122
    vertex -89.08190939410926 -9.531781893682634 -12.822740896878521
  endloop
endfacet
facet normal -8.797099670152218e-05 0.003436998100302631 -0.9999940896351149
  outer loop
    vertex -96.14816840189717 -11.453087304795822 -12.828722829434126
    vertex -95.09033945241578 -17.399314247177767 -12.849253179747981
    vertex -96.91770134518276 -17.403499352932165 -12.849106808236343
  endloop
endfacet
facet normal -8.797099670152218e-05 0.003436998100302631 -0.9999940896351149
  outer loop
    vertex -95.09033945241578 -17.399314247177767 -12.849253179747981
    vertex -96.14816840189717 -11.453087304795822 -12.828722829434126
    vertex -89.33654550692374 -12.333983323790546 -12.832349714069428
  endloop
endfacet
facet normal -8.797099670152218e-05 0.003436998100302631 -0.9999940896351149
  outer loop
    vertex -95.09033945241578 -17.399314247177767 -12.849253179747981
    vertex -89.33654550692374 -12.333983323790546 -12.832349714069428
    vertex -93.32632645468266 -16.92231847731133 -12.847768919402192
  endloop
endfacet
facet normal -8.797099670152218e-05 0.003436998100302631 -0.9999940896351149
  outer loop
    vertex -93.32632645468266 -16.92231847731133 -12.847768919402192
    vertex -89.33654550692374 -12.333983323790546 -12.832349714069428
    vertex -91.74587692260913 -16.005018516776612 -12.844755177088688
  endloop
endfacet
facet normal -8.797099670152218e-05 0.003436998100302631 -0.9999940896351149
  outer loop
    vertex -91.74587692260913 -16.005018516776612 -12.844755177088688
    vertex -89.33654550692374 -12.333983323790546 -12.832349714069428
    vertex -90.45669587998961 -14.709926841974083 -12.84041733436566
  endloop
endfacet
facet normal -8.797099670152218e-05 0.003436998100302631 -0.9999940896351149
  outer loop
    vertex -90.45669587998961 -14.709926841974083 -12.84041733436566
    vertex -89.33654550692374 -12.333983323790546 -12.832349714069428
    vertex -89.68162415483063 -13.36034317524793 -12.8358469746866
  endloop
endfacet
facet normal -8.797099670152218e-05 0.003436998100302631 -0.9999940896351149
  outer loop
    vertex -89.68162415483063 -13.36034317524793 -12.8358469746866
    vertex -89.33654550692374 -12.333983323790546 -12.832349714069428
    vertex -89.54663888440676 -13.125301810301394 -12.835051008046126
  endloop
endfacet
facet normal 0.12825549054761595 0.9917353413560587 0.00339732980036633
  outer loop
    vertex -96.14816840189717 -11.453087304795822 -12.828722829434126
    vertex -89.33636956493027 -12.34085731999115 -10.832361534799203
    vertex -89.33654550692374 -12.333983323790546 -12.832349714069428
  endloop
endfacet
facet normal 0.12825549054761595 0.9917353413560587 0.00339732980036633
  outer loop
    vertex -89.33636956493027 -12.34085731999115 -10.832361534799203
    vertex -96.14816840189717 -11.453087304795822 -12.828722829434126
    vertex -96.14799245990352 -11.459961300996431 -10.828734650163913
  endloop
endfacet
facet normal 0.9920236218841704 -0.12602266325563025 -0.0027243292331792365
  outer loop
    vertex -96.14816840189717 -11.453087304795822 -12.828722829434126
    vertex -95.8914814788085 -9.476490618284297 -10.821939990563164
    vertex -96.14799245990352 -11.459961300996431 -10.828734650163913
  endloop
endfacet
facet normal 0.9920236218841704 -0.12602266325563025 -0.0027243292331792365
  outer loop
    vertex -95.8914814788085 -9.476490618284297 -10.821939990563164
    vertex -96.14816840189717 -11.453087304795822 -12.828722829434126
    vertex -95.89165730264958 -9.399668259642931 -12.82168775603406
  endloop
endfacet
facet normal 0.999997374192122 0.0022902386121404 -8.009969337545829e-05
  outer loop
    vertex -89.07981710513907 -10.445457446316516 -12.825881400639487
    vertex -89.08173345211556 -9.538655889883243 -10.822752717608276
    vertex -89.07964116314531 -10.45233144251713 -10.82589322136925
  endloop
endfacet
facet normal 0.999997374192122 0.0022902386121404 -8.009969337545829e-05
  outer loop
    vertex -89.08173345211556 -9.538655889883243 -10.822752717608276
    vertex -89.07981710513907 -10.445457446316516 -12.825881400639487
    vertex -89.08190939410926 -9.531781893682634 -12.822740896878521
  endloop
endfacet
facet normal -0.1516608971201195 -0.9877045413744243 -0.03793034712547162
  outer loop
    vertex -95.8914814788085 -9.476490618284297 -10.821939990563164
    vertex -95.89165730264958 -9.399668259642931 -12.82168775603406
    vertex -89.07981710513907 -10.445457446316516 -12.825881400639487
  endloop
endfacet
facet normal -0.14180993330106642 -0.9898881008234109 -0.003389788395754454
  outer loop
    vertex -95.8914814788085 -9.476490618284297 -10.821939990563164
    vertex -89.07981710513907 -10.445457446316516 -12.825881400639487
    vertex -89.07964116314531 -10.45233144251713 -10.82589322136925
  endloop
endfacet
endsolid CarChassis1_Mod2
