solid CarChassis1_Mod2
facet normal 6.028406686030714e-17 1.0 4.0853270146141164e-17
  outer loop
    vertex -84.0 38.00000000000001 -6.000000000000003
    vertex -77.0 38.00000000000001 -13.000000000000002
    vertex -84.0 38.00000000000001 -13.000000000000002
  endloop
endfacet
facet normal 6.028406686030714e-17 1.0 4.0853270146141164e-17
  outer loop
    vertex -77.0 38.00000000000001 -13.000000000000002
    vertex -84.0 38.00000000000001 -6.000000000000003
    vertex 1.5860069042194547e-15 38.0 -12.0
  endloop
endfacet
facet normal 6.028406686030714e-17 1.0 4.0853270146141164e-17
  outer loop
    vertex 1.5860069042194547e-15 38.0 -12.0
    vertex -84.0 38.00000000000001 -6.000000000000003
    vertex -3.1058285412302444 38.0 -11.59110991546882
  endloop
endfacet
facet normal 6.028406686030714e-17 1.0 4.0853270146141164e-17
  outer loop
    vertex -3.1058285412302444 38.0 -11.59110991546882
    vertex -84.0 38.00000000000001 -6.000000000000003
    vertex -5.9999999999999964 38.0 -10.392304845413264
  endloop
endfacet
facet normal 6.028406686030714e-17 1.0 4.0853270146141164e-17
  outer loop
    vertex -5.9999999999999964 38.0 -10.392304845413264
    vertex -84.0 38.00000000000001 -6.000000000000003
    vertex -8.485281374238566 38.0 -8.485281374238575
  endloop
endfacet
facet normal 6.028406686030714e-17 1.0 4.0853270146141164e-17
  outer loop
    vertex -8.485281374238566 38.0 -8.485281374238575
    vertex -84.0 38.00000000000001 -6.000000000000003
    vertex -10.392304845413262 38.0 -6.000000000000005
  endloop
endfacet
facet normal 6.028406686030714e-17 1.0 4.0853270146141164e-17
  outer loop
    vertex -10.392304845413262 38.0 -6.000000000000005
    vertex -84.0 38.00000000000001 -6.000000000000003
    vertex -13.999999999999996 38.0 -6.000000000000003
  endloop
endfacet
facet normal 6.028406686030714e-17 1.0 4.0853270146141164e-17
  outer loop
    vertex -10.392304845413262 38.0 -6.000000000000005
    vertex -13.999999999999996 38.0 -6.000000000000003
    vertex -11.591109915468818 38.0 -3.105828541230258
  endloop
endfacet
facet normal 6.028406686030714e-17 1.0 4.0853270146141164e-17
  outer loop
    vertex -11.591109915468818 38.0 -3.105828541230258
    vertex -13.999999999999996 38.0 -6.000000000000003
    vertex -14.000000000000002 38.0 2.2964368389294716e-16
  endloop
endfacet
facet normal 6.028406686030714e-17 1.0 4.0853270146141164e-17
  outer loop
    vertex -11.591109915468818 38.0 -3.105828541230258
    vertex -14.000000000000002 38.0 2.2964368389294716e-16
    vertex -12.0 38.0 -2.183606960686947e-15
  endloop
endfacet
facet normal 6.028406686030714e-17 1.0 4.0853270146141164e-17
  outer loop
    vertex 14.000000000000002 38.0 -17.0
    vertex 10.392304845413264 38.0 -5.9999999999999964
    vertex 14.000000000000002 38.0 -2.1836069606869477e-15
  endloop
endfacet
facet normal 6.028406686030714e-17 1.0 4.0853270146141164e-17
  outer loop
    vertex 10.392304845413264 38.0 -5.9999999999999964
    vertex 14.000000000000002 38.0 -17.0
    vertex 8.485281374238571 38.0 -8.48528137423857
  endloop
endfacet
facet normal 6.028406686030714e-17 1.0 4.0853270146141164e-17
  outer loop
    vertex 8.485281374238571 38.0 -8.48528137423857
    vertex 14.000000000000002 38.0 -17.0
    vertex 6.000000000000004 38.0 -10.392304845413262
  endloop
endfacet
facet normal 6.028406686030714e-17 1.0 4.0853270146141164e-17
  outer loop
    vertex 6.000000000000004 38.0 -10.392304845413262
    vertex 14.000000000000002 38.0 -17.0
    vertex 3.1058285412302524 38.0 -11.591109915468818
  endloop
endfacet
facet normal 6.028406686030714e-17 1.0 4.0853270146141164e-17
  outer loop
    vertex 3.1058285412302524 38.0 -11.591109915468818
    vertex 14.000000000000002 38.0 -17.0
    vertex 1.5860069042194547e-15 38.0 -12.0
  endloop
endfacet
facet normal 6.028406686030714e-17 1.0 4.0853270146141164e-17
  outer loop
    vertex 1.5860069042194547e-15 38.0 -12.0
    vertex 14.000000000000002 38.0 -17.0
    vertex -77.0 38.00000000000001 -13.000000000000002
  endloop
endfacet
facet normal 6.028406686030714e-17 1.0 4.0853270146141164e-17
  outer loop
    vertex 14.000000000000002 38.0 -2.1836069606869477e-15
    vertex 10.392304845413264 38.0 -5.9999999999999964
    vertex 11.59110991546882 38.0 -3.1058285412302475
  endloop
endfacet
facet normal 6.028406686030714e-17 1.0 4.0853270146141164e-17
  outer loop
    vertex 14.000000000000002 38.0 -2.1836069606869477e-15
    vertex 11.59110991546882 38.0 -3.1058285412302475
    vertex 12.0 38.0 7.555453572666998e-16
  endloop
endfacet
facet normal 4.898587196589413e-16 -0.0 1.0
  outer loop
    vertex 14.000000000000002 -20.000000000000004 -2.2251215162435243e-15
    vertex 12.0 38.0 7.555453572666998e-16
    vertex 12.0 -20.000000000000004 7.140308017101236e-16
  endloop
endfacet
facet normal 4.898587196589413e-16 -0.0 1.0
  outer loop
    vertex 12.0 38.0 7.555453572666998e-16
    vertex 14.000000000000002 -20.000000000000004 -2.2251215162435243e-15
    vertex 14.000000000000002 38.0 -2.1836069606869477e-15
  endloop
endfacet
facet normal 3.6739403974420584e-16 -0.0 1.0
  outer loop
    vertex -12.0 -20.000000000000004 -2.2251215162435235e-15
    vertex -14.000000000000002 38.0 2.2964368389294716e-16
    vertex -14.000000000000002 -20.000000000000004 1.8812912833637072e-16
  endloop
endfacet
facet normal 3.6739403974420584e-16 -0.0 1.0
  outer loop
    vertex -14.000000000000002 38.0 2.2964368389294716e-16
    vertex -12.0 -20.000000000000004 -2.2251215162435235e-15
    vertex -12.0 38.0 -2.183606960686947e-15
  endloop
endfacet
facet normal -6.028406686030716e-17 -1.0 -4.085327014614106e-17
  outer loop
    vertex 14.000000000000002 -20.000000000000004 -17.000000000000004
    vertex 1.3531454137341931e-15 -20.000000000000004 -12.0
    vertex -77.0 -19.999999999999996 -13.000000000000002
  endloop
endfacet
facet normal -6.028406686030716e-17 -1.0 -4.085327014614106e-17
  outer loop
    vertex 1.3531454137341931e-15 -20.000000000000004 -12.0
    vertex 14.000000000000002 -20.000000000000004 -17.000000000000004
    vertex 3.1058285412302524 -20.000000000000004 -11.591109915468818
  endloop
endfacet
facet normal -6.028406686030716e-17 -1.0 -4.085327014614106e-17
  outer loop
    vertex 3.1058285412302524 -20.000000000000004 -11.591109915468818
    vertex 14.000000000000002 -20.000000000000004 -17.000000000000004
    vertex 6.000000000000004 -20.000000000000004 -10.392304845413262
  endloop
endfacet
facet normal -6.028406686030716e-17 -1.0 -4.085327014614106e-17
  outer loop
    vertex 6.000000000000004 -20.000000000000004 -10.392304845413262
    vertex 14.000000000000002 -20.000000000000004 -17.000000000000004
    vertex 8.485281374238571 -20.000000000000004 -8.48528137423857
  endloop
endfacet
facet normal -6.028406686030716e-17 -1.0 -4.085327014614106e-17
  outer loop
    vertex 8.485281374238571 -20.000000000000004 -8.48528137423857
    vertex 14.000000000000002 -20.000000000000004 -17.000000000000004
    vertex 10.392304845413264 -20.000000000000004 -5.9999999999999964
  endloop
endfacet
facet normal -6.028406686030716e-17 -1.0 -4.085327014614106e-17
  outer loop
    vertex 10.392304845413264 -20.000000000000004 -5.9999999999999964
    vertex 14.000000000000002 -20.000000000000004 -17.000000000000004
    vertex 14.000000000000002 -20.000000000000004 -2.2251215162435243e-15
  endloop
endfacet
facet normal -6.028406686030716e-17 -1.0 -4.085327014614106e-17
  outer loop
    vertex -77.0 -19.999999999999996 -13.000000000000002
    vertex 1.3531454137341931e-15 -20.000000000000004 -12.0
    vertex -84.0 -19.999999999999996 -13.000000000000002
  endloop
endfacet
facet normal -6.028406686030716e-17 -1.0 -4.085327014614106e-17
  outer loop
    vertex 10.392304845413264 -20.000000000000004 -5.9999999999999964
    vertex 14.000000000000002 -20.000000000000004 -2.2251215162435243e-15
    vertex 11.59110991546882 -20.000000000000004 -3.1058285412302475
  endloop
endfacet
facet normal -6.028406686030716e-17 -1.0 -4.085327014614106e-17
  outer loop
    vertex 11.59110991546882 -20.000000000000004 -3.1058285412302475
    vertex 14.000000000000002 -20.000000000000004 -2.2251215162435243e-15
    vertex 12.0 -20.000000000000004 7.140308017101236e-16
  endloop
endfacet
facet normal -6.028406686030716e-17 -1.0 -4.085327014614106e-17
  outer loop
    vertex -11.591109915468818 -20.000000000000004 -3.105828541230258
    vertex -14.000000000000002 -20.000000000000004 -6.000000000000003
    vertex -10.392304845413262 -20.000000000000004 -6.000000000000005
  endloop
endfacet
facet normal -6.028406686030716e-17 -1.0 -4.085327014614106e-17
  outer loop
    vertex -14.000000000000002 -20.000000000000004 -6.000000000000003
    vertex -11.591109915468818 -20.000000000000004 -3.105828541230258
    vertex -14.000000000000002 -20.000000000000004 1.8812912833637072e-16
  endloop
endfacet
facet normal -6.028406686030716e-17 -1.0 -4.085327014614106e-17
  outer loop
    vertex -14.000000000000002 -20.000000000000004 1.8812912833637072e-16
    vertex -11.591109915468818 -20.000000000000004 -3.105828541230258
    vertex -12.0 -20.000000000000004 -2.2251215162435235e-15
  endloop
endfacet
facet normal -6.028406686030716e-17 -1.0 -4.085327014614106e-17
  outer loop
    vertex 1.3531454137341931e-15 -20.000000000000004 -12.0
    vertex -84.0 -19.999999999999996 -6.000000000000003
    vertex -84.0 -19.999999999999996 -13.000000000000002
  endloop
endfacet
facet normal -6.028406686030716e-17 -1.0 -4.085327014614106e-17
  outer loop
    vertex -84.0 -19.999999999999996 -6.000000000000003
    vertex 1.3531454137341931e-15 -20.000000000000004 -12.0
    vertex -3.1058285412302444 -20.000000000000004 -11.59110991546882
  endloop
endfacet
facet normal -6.028406686030716e-17 -1.0 -4.085327014614106e-17
  outer loop
    vertex -84.0 -19.999999999999996 -6.000000000000003
    vertex -3.1058285412302444 -20.000000000000004 -11.59110991546882
    vertex -5.9999999999999964 -20.000000000000004 -10.392304845413264
  endloop
endfacet
facet normal -6.028406686030716e-17 -1.0 -4.085327014614106e-17
  outer loop
    vertex -84.0 -19.999999999999996 -6.000000000000003
    vertex -5.9999999999999964 -20.000000000000004 -10.392304845413264
    vertex -8.485281374238566 -20.000000000000004 -8.485281374238575
  endloop
endfacet
facet normal -6.028406686030716e-17 -1.0 -4.085327014614106e-17
  outer loop
    vertex -84.0 -19.999999999999996 -6.000000000000003
    vertex -8.485281374238566 -20.000000000000004 -8.485281374238575
    vertex -10.392304845413262 -20.000000000000004 -6.000000000000005
  endloop
endfacet
facet normal -6.028406686030716e-17 -1.0 -4.085327014614106e-17
  outer loop
    vertex -84.0 -19.999999999999996 -6.000000000000003
    vertex -10.392304845413262 -20.000000000000004 -6.000000000000005
    vertex -14.000000000000002 -20.000000000000004 -6.000000000000003
  endloop
endfacet
facet normal -1.0 6.983830890698415e-17 -2.5636058932253605e-16
  outer loop
    vertex -14.000000000000002 38.0 2.2964368389294716e-16
    vertex -14.000000000000002 -20.000000000000004 -6.000000000000003
    vertex -14.000000000000002 -20.000000000000004 1.8812912833637072e-16
  endloop
endfacet
facet normal -1.0 6.983830890698415e-17 -2.5636058932253605e-16
  outer loop
    vertex -14.000000000000002 -20.000000000000004 -6.000000000000003
    vertex -14.000000000000002 38.0 2.2964368389294716e-16
    vertex -14.000000000000002 -19.500000000000004 -6.000000000000003
  endloop
endfacet
facet normal -1.0 6.983830890698415e-17 -2.5636058932253605e-16
  outer loop
    vertex -14.000000000000002 -19.500000000000004 -6.000000000000003
    vertex -14.000000000000002 38.0 2.2964368389294716e-16
    vertex -14.000000000000002 -19.500000000000004 -11.000000000000002
  endloop
endfacet
facet normal -1.0 6.983830890698415e-17 -2.5636058932253605e-16
  outer loop
    vertex -14.000000000000002 -19.500000000000004 -11.000000000000002
    vertex -14.000000000000002 38.0 2.2964368389294716e-16
    vertex -13.999999999999996 37.5 -6.000000000000003
  endloop
endfacet
facet normal -1.0 6.983830890698415e-17 -2.5636058932253605e-16
  outer loop
    vertex -13.999999999999996 37.5 -6.000000000000003
    vertex -14.000000000000002 38.0 2.2964368389294716e-16
    vertex -13.999999999999996 38.0 -6.000000000000003
  endloop
endfacet
facet normal -1.0 6.983830890698415e-17 -2.5636058932253605e-16
  outer loop
    vertex -13.999999999999996 37.5 -11.000000000000002
    vertex -14.000000000000002 -19.500000000000004 -11.000000000000002
    vertex -13.999999999999996 37.5 -6.000000000000003
  endloop
endfacet
facet normal -0.0 -0.0 1.0
  outer loop
    vertex -14.000000000000002 -19.500000000000004 -11.000000000000002
    vertex -84.0 37.50000000000001 -11.000000000000002
    vertex -84.0 -19.499999999999996 -11.000000000000002
  endloop
endfacet
facet normal -0.0 -0.0 1.0
  outer loop
    vertex -84.0 37.50000000000001 -11.000000000000002
    vertex -14.000000000000002 -19.500000000000004 -11.000000000000002
    vertex -13.999999999999996 37.5 -11.000000000000002
  endloop
endfacet
facet normal -0.0 -0.0 1.0
  outer loop
    vertex -13.999999999999996 37.5 -6.000000000000003
    vertex -84.0 38.00000000000001 -6.000000000000003
    vertex -84.0 37.50000000000001 -6.000000000000003
  endloop
endfacet
facet normal -0.0 -0.0 1.0
  outer loop
    vertex -84.0 38.00000000000001 -6.000000000000003
    vertex -13.999999999999996 37.5 -6.000000000000003
    vertex -13.999999999999996 38.0 -6.000000000000003
  endloop
endfacet
facet normal -8.057047092993991e-17 -1.0 0.0
  outer loop
    vertex -13.999999999999996 37.5 -6.000000000000003
    vertex -84.0 37.50000000000001 -11.000000000000002
    vertex -13.999999999999996 37.5 -11.000000000000002
  endloop
endfacet
facet normal -8.057047092993991e-17 -1.0 0.0
  outer loop
    vertex -84.0 37.50000000000001 -11.000000000000002
    vertex -13.999999999999996 37.5 -6.000000000000003
    vertex -84.0 37.50000000000001 -6.000000000000003
  endloop
endfacet
facet normal 1.0 -0.0 -0.0
  outer loop
    vertex 14.000000000000002 38.0 -17.0
    vertex 14.000000000000002 -20.000000000000004 -2.2251215162435243e-15
    vertex 14.000000000000002 -20.000000000000004 -17.000000000000004
  endloop
endfacet
facet normal 1.0 -0.0 -0.0
  outer loop
    vertex 14.000000000000002 -20.000000000000004 -2.2251215162435243e-15
    vertex 14.000000000000002 38.0 -17.0
    vertex 14.000000000000002 38.0 -2.1836069606869477e-15
  endloop
endfacet
facet normal -0.13052619222005166 3.669310540186823e-19 0.9914448613738105
  outer loop
    vertex 3.1058285412302524 -20.000000000000004 -11.591109915468818
    vertex 1.5860069042194547e-15 38.0 -12.0
    vertex 1.3531454137341931e-15 -20.000000000000004 -12.0
  endloop
endfacet
facet normal -0.13052619222005166 3.669310540186823e-19 0.9914448613738105
  outer loop
    vertex 1.5860069042194547e-15 38.0 -12.0
    vertex 3.1058285412302524 -20.000000000000004 -11.591109915468818
    vertex 3.1058285412302524 38.0 -11.591109915468818
  endloop
endfacet
facet normal -0.7933533402912355 -1.174471677462446e-18 0.6087614290087201
  outer loop
    vertex 10.392304845413264 38.0 -5.9999999999999964
    vertex 8.485281374238571 -20.000000000000004 -8.48528137423857
    vertex 10.392304845413264 -20.000000000000004 -5.9999999999999964
  endloop
endfacet
facet normal -0.7933533402912355 -1.174471677462446e-18 0.6087614290087201
  outer loop
    vertex 8.485281374238571 -20.000000000000004 -8.48528137423857
    vertex 10.392304845413264 38.0 -5.9999999999999964
    vertex 8.485281374238571 38.0 -8.48528137423857
  endloop
endfacet
facet normal 0.3826834323650895 -6.838506181390933e-19 0.9238795325112868
  outer loop
    vertex -3.1058285412302444 -20.000000000000004 -11.59110991546882
    vertex -5.9999999999999964 38.0 -10.392304845413264
    vertex -5.9999999999999964 -20.000000000000004 -10.392304845413264
  endloop
endfacet
facet normal 0.3826834323650895 -6.838506181390933e-19 0.9238795325112868
  outer loop
    vertex -5.9999999999999964 38.0 -10.392304845413264
    vertex -3.1058285412302444 -20.000000000000004 -11.59110991546882
    vertex -3.1058285412302444 38.0 -11.59110991546882
  endloop
endfacet
facet normal -0.608761429008721 -0.0 0.7933533402912349
  outer loop
    vertex 8.485281374238571 -20.000000000000004 -8.48528137423857
    vertex 6.000000000000004 38.0 -10.392304845413262
    vertex 6.000000000000004 -20.000000000000004 -10.392304845413262
  endloop
endfacet
facet normal -0.608761429008721 -0.0 0.7933533402912349
  outer loop
    vertex 6.000000000000004 38.0 -10.392304845413262
    vertex 8.485281374238571 -20.000000000000004 -8.48528137423857
    vertex 8.485281374238571 38.0 -8.48528137423857
  endloop
endfacet
facet normal 0.6087614290087201 -1.1744716774624463e-18 0.7933533402912357
  outer loop
    vertex -5.9999999999999964 -20.000000000000004 -10.392304845413264
    vertex -8.485281374238566 38.0 -8.485281374238575
    vertex -8.485281374238566 -20.000000000000004 -8.485281374238575
  endloop
endfacet
facet normal 0.6087614290087201 -1.1744716774624463e-18 0.7933533402912357
  outer loop
    vertex -8.485281374238566 38.0 -8.485281374238575
    vertex -5.9999999999999964 -20.000000000000004 -10.392304845413264
    vertex -5.9999999999999964 38.0 -10.392304845413264
  endloop
endfacet
facet normal 0.7933533402912348 -0.0 0.6087614290087211
  outer loop
    vertex -8.485281374238566 38.0 -8.485281374238575
    vertex -10.392304845413262 -20.000000000000004 -6.000000000000005
    vertex -8.485281374238566 -20.000000000000004 -8.485281374238575
  endloop
endfacet
facet normal 0.7933533402912348 -0.0 0.6087614290087211
  outer loop
    vertex -10.392304845413262 -20.000000000000004 -6.000000000000005
    vertex -8.485281374238566 38.0 -8.485281374238575
    vertex -10.392304845413262 38.0 -6.000000000000005
  endloop
endfacet
facet normal -0.3826834323650899 6.838506181390931e-19 0.9238795325112867
  outer loop
    vertex 6.000000000000004 -20.000000000000004 -10.392304845413262
    vertex 3.1058285412302524 38.0 -11.591109915468818
    vertex 3.1058285412302524 -20.000000000000004 -11.591109915468818
  endloop
endfacet
facet normal -0.3826834323650899 6.838506181390931e-19 0.9238795325112867
  outer loop
    vertex 3.1058285412302524 38.0 -11.591109915468818
    vertex 6.000000000000004 -20.000000000000004 -10.392304845413262
    vertex 6.000000000000004 38.0 -10.392304845413262
  endloop
endfacet
facet normal 0.9914448613738105 -0.0 0.13052619222005188
  outer loop
    vertex -11.591109915468818 38.0 -3.105828541230258
    vertex -12.0 -20.000000000000004 -2.2251215162435235e-15
    vertex -11.591109915468818 -20.000000000000004 -3.105828541230258
  endloop
endfacet
facet normal 0.9914448613738105 -0.0 0.13052619222005188
  outer loop
    vertex -12.0 -20.000000000000004 -2.2251215162435235e-15
    vertex -11.591109915468818 38.0 -3.105828541230258
    vertex -12.0 38.0 -2.183606960686947e-15
  endloop
endfacet
facet normal -0.9238795325112865 6.83850618139093e-19 0.3826834323650902
  outer loop
    vertex 11.59110991546882 38.0 -3.1058285412302475
    vertex 10.392304845413264 -20.000000000000004 -5.9999999999999964
    vertex 11.59110991546882 -20.000000000000004 -3.1058285412302475
  endloop
endfacet
facet normal -0.9238795325112865 6.83850618139093e-19 0.3826834323650902
  outer loop
    vertex 10.392304845413264 -20.000000000000004 -5.9999999999999964
    vertex 11.59110991546882 38.0 -3.1058285412302475
    vertex 10.392304845413264 38.0 -5.9999999999999964
  endloop
endfacet
facet normal -0.9914448613738105 0.0 0.13052619222005135
  outer loop
    vertex 12.0 38.0 7.555453572666998e-16
    vertex 11.59110991546882 -20.000000000000004 -3.1058285412302475
    vertex 12.0 -20.000000000000004 7.140308017101236e-16
  endloop
endfacet
facet normal -0.9914448613738105 0.0 0.13052619222005135
  outer loop
    vertex 11.59110991546882 -20.000000000000004 -3.1058285412302475
    vertex 12.0 38.0 7.555453572666998e-16
    vertex 11.59110991546882 38.0 -3.1058285412302475
  endloop
endfacet
facet normal 0.9238795325112865 6.83850618139093e-19 0.38268343236509045
  outer loop
    vertex -10.392304845413262 38.0 -6.000000000000005
    vertex -11.591109915468818 -20.000000000000004 -3.105828541230258
    vertex -10.392304845413262 -20.000000000000004 -6.000000000000005
  endloop
endfacet
facet normal 0.9238795325112865 6.83850618139093e-19 0.38268343236509045
  outer loop
    vertex -11.591109915468818 -20.000000000000004 -3.105828541230258
    vertex -10.392304845413262 38.0 -6.000000000000005
    vertex -11.591109915468818 38.0 -3.105828541230258
  endloop
endfacet
facet normal 0.13052619222005146 -3.669310540186823e-19 0.9914448613738105
  outer loop
    vertex 1.3531454137341931e-15 -20.000000000000004 -12.0
    vertex -3.1058285412302444 38.0 -11.59110991546882
    vertex -3.1058285412302444 -20.000000000000004 -11.59110991546882
  endloop
endfacet
facet normal 0.13052619222005146 -3.669310540186823e-19 0.9914448613738105
  outer loop
    vertex -3.1058285412302444 38.0 -11.59110991546882
    vertex 1.3531454137341931e-15 -20.000000000000004 -12.0
    vertex 1.5860069042194547e-15 38.0 -12.0
  endloop
endfacet
facet normal 8.057047092993994e-17 1.0 5.771033098640475e-32
  outer loop
    vertex -84.0 -19.499999999999996 -6.000000000000003
    vertex -14.000000000000002 -19.500000000000004 -11.000000000000002
    vertex -84.0 -19.499999999999996 -11.000000000000002
  endloop
endfacet
facet normal 8.057047092993994e-17 1.0 5.771033098640475e-32
  outer loop
    vertex -14.000000000000002 -19.500000000000004 -11.000000000000002
    vertex -84.0 -19.499999999999996 -6.000000000000003
    vertex -14.000000000000002 -19.500000000000004 -6.000000000000003
  endloop
endfacet
facet normal -1.0 0.0 0.0
  outer loop
    vertex -84.0 38.00000000000001 -6.000000000000003
    vertex -84.0 37.50000000000001 -11.000000000000002
    vertex -84.0 37.50000000000001 -6.000000000000003
  endloop
endfacet
facet normal -1.0 0.0 0.0
  outer loop
    vertex -84.0 -19.499999999999996 -6.000000000000003
    vertex -84.0 -19.999999999999996 -13.000000000000002
    vertex -84.0 -19.999999999999996 -6.000000000000003
  endloop
endfacet
facet normal -1.0 0.0 0.0
  outer loop
    vertex -84.0 -19.999999999999996 -13.000000000000002
    vertex -84.0 -19.499999999999996 -6.000000000000003
    vertex -84.0 -19.499999999999996 -11.000000000000002
  endloop
endfacet
facet normal -1.0 0.0 0.0
  outer loop
    vertex -84.0 -19.999999999999996 -13.000000000000002
    vertex -84.0 -19.499999999999996 -11.000000000000002
    vertex -84.0 38.00000000000001 -13.000000000000002
  endloop
endfacet
facet normal -1.0 0.0 0.0
  outer loop
    vertex -84.0 38.00000000000001 -13.000000000000002
    vertex -84.0 -19.499999999999996 -11.000000000000002
    vertex -84.0 37.50000000000001 -11.000000000000002
  endloop
endfacet
facet normal -1.0 0.0 0.0
  outer loop
    vertex -84.0 38.00000000000001 -13.000000000000002
    vertex -84.0 37.50000000000001 -11.000000000000002
    vertex -84.0 38.00000000000001 -6.000000000000003
  endloop
endfacet
facet normal -0.0 -0.0 1.0
  outer loop
    vertex -14.000000000000002 -20.000000000000004 -6.000000000000003
    vertex -84.0 -19.499999999999996 -6.000000000000003
    vertex -84.0 -19.999999999999996 -6.000000000000003
  endloop
endfacet
facet normal -0.0 -0.0 1.0
  outer loop
    vertex -84.0 -19.499999999999996 -6.000000000000003
    vertex -14.000000000000002 -20.000000000000004 -6.000000000000003
    vertex -14.000000000000002 -19.500000000000004 -6.000000000000003
  endloop
endfacet
facet normal 0.0 0.0 -1.0
  outer loop
    vertex -77.0 38.00000000000001 -13.000000000000002
    vertex -84.0 -19.999999999999996 -13.000000000000002
    vertex -84.0 38.00000000000001 -13.000000000000002
  endloop
endfacet
facet normal 0.0 0.0 -1.0
  outer loop
    vertex -84.0 -19.999999999999996 -13.000000000000002
    vertex -77.0 38.00000000000001 -13.000000000000002
    vertex -77.0 -19.999999999999996 -13.000000000000002
  endloop
endfacet
facet normal -0.04391364091329734 2.1768445487951876e-17 -0.9990353307775146
  outer loop
    vertex 14.000000000000002 38.0 -17.0
    vertex -77.0 -19.999999999999996 -13.000000000000002
    vertex -77.0 38.00000000000001 -13.000000000000002
  endloop
endfacet
facet normal -0.04391364091329734 2.1768445487951876e-17 -0.9990353307775146
  outer loop
    vertex -77.0 -19.999999999999996 -13.000000000000002
    vertex 14.000000000000002 38.0 -17.0
    vertex 14.000000000000002 -20.000000000000004 -17.000000000000004
  endloop
endfacet
endsolid CarChassis1_Mod2
